<?xml version="1.0" encoding="UTF-8"?>
<svg id="Layer_1" data-name="Layer 1" xmlns="http://www.w3.org/2000/svg" viewBox="0 0 1000.08 1000.08">
  <defs>
    <style>
      .cls-1 {
        fill: #fff;
      }
    </style>
  </defs>
  <path class="cls-1" d="M377.07,92.86l-4.28,25.62,4.42,13.06-7.26,2.46-4.42-13.06-19.36-17.62,8.56-2.9,12.33,12.69,1.79-17.47,8.23-2.78Z"/>
  <path class="cls-1" d="M409.74,114.13c.23,1.6-.17,3.4-1.2,5.38-1.58,3.14-4.4,5.23-8.45,6.28-3.34.87-6.56.56-9.68-.93-3.11-1.49-5.3-4.66-6.56-9.51-1.18-4.54-.93-8.33.74-11.35,1.67-3.02,4.35-5.01,8.03-5.97,2.18-.57,4.26-.67,6.22-.3s3.74,1.28,5.34,2.75c1.43,1.29,2.57,2.92,3.41,4.9.49,1.16,1.01,2.87,1.57,5.15l-17.97,4.67c.78,2.61,2.09,4.24,3.92,4.9,1.12.41,2.34.45,3.68.1,1.41-.37,2.46-1.07,3.13-2.1.37-.56.64-1.27.81-2.14l7.01-1.82ZM400.86,107.85c-.58-1.79-1.49-3.02-2.72-3.7-1.23-.68-2.58-.83-4.04-.45-1.59.41-2.69,1.23-3.31,2.45-.62,1.22-.82,2.71-.6,4.48l10.67-2.77Z"/>
  <path class="cls-1" d="M409.19,85.04l6.95-1.41,7.29,35.95-6.95,1.41-7.29-35.95Z"/>
  <path class="cls-1" d="M424.06,82.17l7-1.16,6.01,36.18-7,1.16-6.01-36.18Z"/>
  <path class="cls-1" d="M463.35,90.09c2.58,2.61,4.09,5.86,4.51,9.75.43,3.96-.35,7.47-2.32,10.52-1.97,3.06-5.28,4.84-9.91,5.34-4.64.5-8.24-.53-10.82-3.1-2.58-2.57-4.08-5.83-4.51-9.79-.42-3.89.35-7.39,2.32-10.49,1.97-3.1,5.27-4.9,9.9-5.4,4.63-.5,8.24.55,10.83,3.16ZM453.14,92.9c-2.06.22-3.57,1.12-4.53,2.7-.96,1.58-1.29,3.72-1,6.43.29,2.71,1.07,4.73,2.35,6.08,1.27,1.35,2.94,1.91,5,1.69,2.06-.22,3.57-1.13,4.51-2.71.95-1.59,1.27-3.73.98-6.44-.29-2.7-1.07-4.73-2.33-6.07-1.26-1.34-2.92-1.9-4.99-1.68Z"/>
  <path class="cls-1" d="M494.1,112.52l-4.46-19.71-4.1,19.8-7.37.08-7.9-27.04,7.61-.08,4.43,19.41,3.7-19.5,7.19-.08,4.33,19.49,4.03-19.58,7.39-.08-7.58,27.2-7.29.08Z"/>
  <path class="cls-1" d="M525.27,108.32l-.27,5.29-3.36-.05c-3.35-.05-5.61-.75-6.77-2.09-.75-.85-1.09-2.12-1-3.81l.85-16.68-3.78-.19.26-5.04,3.78.19.39-7.55,7.01.36-.39,7.55,4.4.22-.26,5.04-4.4-.22-.73,14.31c-.06,1.11.05,1.81.32,2.1.27.29,1.12.47,2.56.54.21.01.44.02.68.02s.48,0,.71,0Z"/>
  <path class="cls-1" d="M554.16,92.52c1.96,3.11,2.72,6.61,2.28,10.5-.44,3.96-1.96,7.21-4.55,9.77s-6.2,3.58-10.83,3.06-7.93-2.31-9.89-5.38c-1.96-3.07-2.72-6.58-2.28-10.53.44-3.89,1.95-7.13,4.54-9.73,2.59-2.6,6.21-3.64,10.84-3.12,4.63.52,7.93,2.33,9.88,5.44ZM543.58,93.03c-2.06-.23-3.73.32-5.01,1.66-1.28,1.33-2.07,3.35-2.37,6.06-.3,2.7.02,4.85.97,6.44.95,1.59,2.45,2.5,4.51,2.73s3.73-.33,5-1.67c1.27-1.34,2.05-3.37,2.36-6.07.3-2.7-.02-4.85-.96-6.43-.94-1.58-2.44-2.49-4.5-2.72Z"/>
  <path class="cls-1" d="M585.95,98.17c1.71,3.25,2.19,6.8,1.45,10.64-.75,3.91-2.52,7.04-5.3,9.38-2.78,2.34-6.46,3.08-11.04,2.2-4.58-.88-7.72-2.93-9.44-6.14-1.71-3.21-2.19-6.77-1.44-10.68.74-3.84,2.51-6.96,5.3-9.34,2.79-2.39,6.47-3.14,11.05-2.26,4.58.88,7.72,2.95,9.42,6.2ZM575.37,97.86c-2.04-.39-3.74.03-5.12,1.26-1.38,1.23-2.32,3.18-2.84,5.85-.51,2.67-.36,4.84.46,6.5.82,1.66,2.25,2.69,4.29,3.08,2.04.39,3.74-.03,5.11-1.27s2.31-3.2,2.83-5.87c.51-2.67.36-4.83-.45-6.48s-2.24-2.67-4.27-3.07Z"/>
  <path class="cls-1" d="M602.5,121.53l-1.32,5.13-3.29-.71c-3.27-.72-5.35-1.85-6.22-3.4-.57-.98-.64-2.3-.22-3.94l4.15-16.17-3.66-.94,1.26-4.89,3.66.94,1.88-7.33,6.8,1.74-1.88,7.33,4.27,1.1-1.26,4.89-4.27-1.1-3.56,13.88c-.28,1.08-.31,1.78-.11,2.12.21.33,1.01.68,2.4,1.04.21.05.43.11.67.16.24.05.47.1.7.14Z"/>
  <path class="cls-1" d="M633.38,119.78l-4.89,15.15-6.89-2.23,5.07-15.7c.45-1.39.57-2.59.38-3.59-.23-1.4-1.2-2.38-2.92-2.93-1.78-.58-3.33-.42-4.64.48s-2.32,2.45-3.03,4.66l-4.51,13.97-6.73-2.17,11.24-34.78,6.73,2.17-3.99,12.34c1.46-1.18,2.93-1.86,4.41-2.04,1.48-.18,2.93-.04,4.35.42,1.59.52,2.95,1.26,4.08,2.23s1.92,2.16,2.39,3.57c.4,1.19.51,2.32.34,3.39-.17,1.07-.63,2.76-1.37,5.06Z"/>
  <path class="cls-1" d="M661.15,120.13c1.45,2.06,1.69,4.69.73,7.88l-6.56-2.68c.25-.88.29-1.65.1-2.3-.36-1.19-1.4-2.13-3.14-2.84-1.43-.58-2.54-.78-3.33-.58-.79.2-1.3.6-1.55,1.19-.31.75-.21,1.43.3,2.03.5.62,2.53,2.16,6.1,4.62,2.36,1.68,3.94,3.41,4.74,5.19.78,1.79.78,3.62,0,5.51-1.02,2.49-2.77,4.14-5.26,4.96-2.49.82-5.68.44-9.55-1.14-3.95-1.61-6.52-3.64-7.72-6.07s-1.27-4.94-.22-7.52l6.66,2.72c-.34,1.22-.38,2.18-.12,2.85.46,1.21,1.78,2.26,3.98,3.16,1.29.53,2.39.75,3.31.68.92-.07,1.53-.49,1.85-1.26.3-.74.22-1.42-.23-2.06-.46-.63-2.47-2.23-6.03-4.78-2.55-1.87-4.2-3.57-4.93-5.11-.74-1.52-.71-3.26.09-5.23.95-2.32,2.67-3.94,5.17-4.86,2.5-.92,5.4-.71,8.7.64,3.13,1.28,5.44,2.95,6.91,5Z"/>
  <path class="cls-1" d="M712.18,168.34l6.29,4.16-4.09,6.18-6.29-4.16,4.09-6.18Z"/>
  <path class="cls-1" d="M776.2,222.97c1.28,1.28,2.45,2.18,3.53,2.7,2.05.98,3.81.73,5.28-.73.86-.85,1.15-1.89.87-3.11-.29-1.21-1.06-2.79-2.31-4.75l-2.12-3.36c-2.08-3.31-3.28-5.84-3.59-7.59-.55-2.95.46-5.69,3.01-8.23,2.33-2.32,5.1-3.4,8.33-3.24,3.23.16,6.47,1.88,9.74,5.15,2.73,2.74,4.33,5.8,4.81,9.18.48,3.38-.62,6.49-3.29,9.34l-5.2-5.22c1.47-1.65,1.9-3.44,1.29-5.36-.41-1.28-1.24-2.55-2.49-3.8-1.39-1.4-2.79-2.23-4.18-2.51-1.4-.27-2.6.1-3.61,1.1-.93.93-1.21,2.03-.85,3.31.22.83.99,2.32,2.3,4.46l3.39,5.55c1.49,2.43,2.33,4.54,2.54,6.32.32,2.77-.67,5.31-2.99,7.61-2.37,2.37-5.25,3.42-8.63,3.17-3.38-.25-6.72-2.04-10.02-5.35-3.37-3.38-5.25-6.82-5.64-10.29-.39-3.48.77-6.56,3.47-9.26l5.16,5.18c-1.02,1.35-1.59,2.55-1.7,3.62-.19,1.95.78,3.99,2.91,6.13Z"/>
  <path class="cls-1" d="M811.09,228.44l-20.33,17.95-4.76-5.39,20.33-17.95,4.76,5.39ZM818.42,221.97l-4.91,4.33-4.76-5.39,4.91-4.33,4.76,5.39Z"/>
  <path class="cls-1" d="M820.09,247.62c-1.49-1.89-3.31-2.56-5.47-2-1.14.3-2.36.97-3.68,2.01l-11.54,9.08-4.37-5.55,21.28-16.74,4.23,5.38-3.11,2.45c1.66-.14,2.98-.09,3.97.17,1.76.47,3.34,1.59,4.72,3.35,1.73,2.2,2.57,4.46,2.52,6.77-.05,2.31-1.41,4.52-4.09,6.62l-14.36,11.29-4.49-5.71,12.97-10.2c1.12-.88,1.86-1.71,2.23-2.48.67-1.41.39-2.88-.82-4.42Z"/>
  <path class="cls-1" d="M841.17,285.02l-4.05-6.03c.77-.67,1.33-1.47,1.7-2.37.46-1.27.23-2.6-.7-3.99-1.33-1.98-3.23-2.68-5.69-2.08-1.31.32-2.83,1.06-4.56,2.23-1.65,1.11-2.85,2.2-3.6,3.26-1.4,1.96-1.45,3.91-.14,5.85.92,1.38,1.95,2.1,3.09,2.18,1.13.08,2.33-.22,3.6-.89l4.04,6.01c-1.88,1.06-4.01,1.56-6.39,1.47-3.81-.11-6.94-1.98-9.37-5.6s-3.15-7.01-2.15-10.16c1-3.15,3.21-5.88,6.64-8.18,3.87-2.6,7.51-3.68,10.93-3.23,3.42.44,6.24,2.32,8.47,5.64,1.9,2.82,2.82,5.56,2.76,8.21-.06,2.65-1.58,5.22-4.57,7.7Z"/>
  <path class="cls-1" d="M847.38,314.57c-1.49.64-3.32.73-5.5.26-3.44-.71-6.2-2.87-8.28-6.5-1.71-2.99-2.26-6.19-1.65-9.58s3.1-6.33,7.45-8.82c4.07-2.33,7.79-3.09,11.15-2.27s5.98,2.88,7.87,6.18c1.12,1.96,1.76,3.93,1.93,5.92.16,1.99-.25,3.95-1.25,5.88-.87,1.72-2.15,3.25-3.83,4.57-.99.78-2.51,1.73-4.55,2.87l-9.23-16.11c-2.31,1.44-3.54,3.13-3.69,5.07-.1,1.19.19,2.38.87,3.57.72,1.27,1.67,2.09,2.85,2.47.64.21,1.39.28,2.27.22l3.6,6.28ZM851.1,304.35c1.57-1.03,2.52-2.23,2.86-3.6.34-1.37.13-2.71-.62-4.02-.82-1.43-1.9-2.27-3.24-2.55s-2.83-.07-4.47.6l5.48,9.57Z"/>
  <path class="cls-1" d="M880.74,336.61c.59-1.18.57-2.49-.07-3.94-.87-1.98-2.19-3-3.98-3.07-1.03-.04-2.49.31-4.38,1.05l-2.76-6.31c2.86-1.12,5.35-1.61,7.48-1.46,4.06.29,7.05,2.65,8.99,7.07,1.53,3.5,1.78,6.7.75,9.62-1.03,2.91-3.15,5.07-6.34,6.47-2.45,1.07-4.94,1.29-7.48.66-1.68-.41-3.77-1.36-6.28-2.87l-2.98-1.79c-1.87-1.12-3.19-1.87-3.97-2.24s-1.6-.62-2.46-.73l6.32,14.43-5.72,2.5-9.91-22.64c2.4-.98,4.79-1.42,7.17-1.32,2.61-.04,5.9,1.13,9.87,3.5,3.45,2.06,5.83,3.32,7.15,3.8,2.04.72,3.91.71,5.63-.05,1.4-.61,2.39-1.51,2.98-2.69Z"/>
  <path class="cls-1" d="M862.29,370.83c-1.53-4.33-1.09-7.91,1.32-10.72,2.42-2.82,6.43-5.22,12.04-7.21,5.61-1.99,10.25-2.65,13.92-1.99,3.67.66,6.27,3.16,7.8,7.49,1.53,4.33,1.09,7.91-1.34,10.74-2.43,2.82-6.46,5.22-12.07,7.21-5.61,1.99-10.25,2.65-13.9,1.98s-6.24-3.17-7.78-7.5ZM872.24,371.71c2.28-.12,5.37-.87,9.28-2.26,4.1-1.45,7.02-2.83,8.77-4.15,1.75-1.32,2.28-2.97,1.57-4.95-.7-1.99-2.15-2.95-4.35-2.89-2.2.06-5.34.81-9.44,2.26-3.91,1.38-6.79,2.76-8.63,4.14s-2.42,3.06-1.71,5.04c.7,1.99,2.21,2.92,4.51,2.81Z"/>
  <path class="cls-1" d="M872.84,402.02l-1.93-7.01,23.99-6.6-2.25-8.18,4.65-1.28c.69,2.13,1.25,3.6,1.68,4.42.68,1.29,1.6,2.24,2.75,2.86.79.42,1.74.64,2.87.66.67,0,1.16-.04,1.46-.12l1.56,5.69-34.79,9.57Z"/>
  <path class="cls-1" d="M906.74,421.89c.83-1.03,1.09-2.31.78-3.86-.42-2.11-1.5-3.4-3.23-3.85-1-.26-2.5-.23-4.5.08l-1.35-6.76c3.03-.49,5.57-.43,7.62.18,3.9,1.15,6.32,4.09,7.26,8.83.75,3.74.3,6.93-1.33,9.55-1.63,2.63-4.16,4.28-7.58,4.96-2.62.52-5.1.2-7.45-.95-1.55-.76-3.39-2.14-5.52-4.15l-2.53-2.39c-1.58-1.49-2.72-2.51-3.4-3.04-.68-.53-1.43-.95-2.25-1.24l3.08,15.45-6.13,1.22-4.83-24.23c2.55-.44,4.98-.36,7.28.25,2.56.52,5.52,2.37,8.89,5.54,2.93,2.75,4.99,4.5,6.17,5.24,1.83,1.14,3.67,1.53,5.51,1.16,1.5-.3,2.66-.96,3.49-1.99Z"/>
  <path class="cls-1" d="M892.77,495.83v7.54s-7.4.01-7.4.01v-7.54s7.4-.01,7.4-.01Z"/>
  <path class="cls-1" d="M910.41,600.7l-20.01-16.55-13.51-2.73,1.52-7.51,13.51,2.73,24.95-7.91-1.79,8.85-17.17,4.3,14.22,10.31-1.72,8.51Z"/>
  <path class="cls-1" d="M875.62,618.28c-1.5-.61-2.85-1.85-4.05-3.73-1.92-2.94-2.32-6.43-1.2-10.46.92-3.32,2.81-5.96,5.66-7.91,2.85-1.95,6.69-2.25,11.51-.91,4.52,1.26,7.67,3.37,9.45,6.33s2.16,6.28,1.14,9.94c-.6,2.17-1.56,4.02-2.86,5.53-1.3,1.52-2.99,2.6-5.06,3.24-1.83.59-3.82.76-5.95.49-1.25-.16-2.99-.57-5.24-1.22l4.97-17.88c-2.65-.63-4.71-.32-6.2.94-.92.76-1.56,1.8-1.93,3.13-.39,1.41-.31,2.66.25,3.76.3.6.78,1.19,1.45,1.77l-1.94,6.98ZM885.51,613.75c1.84.39,3.36.22,4.57-.5,1.21-.72,2.01-1.81,2.42-3.27.44-1.58.29-2.95-.46-4.09s-1.94-2.07-3.57-2.76l-2.95,10.62Z"/>
  <path class="cls-1" d="M901.07,632.39l-2.26,6.72-34.76-11.72,2.27-6.72,34.76,11.72Z"/>
  <path class="cls-1" d="M896.1,646.7l-2.51,6.63-34.31-12.96,2.51-6.63,34.31,12.96Z"/>
  <path class="cls-1" d="M869.52,676.7c-3.55.92-7.12.59-10.69-1-3.64-1.62-6.28-4.05-7.94-7.29-1.65-3.24-1.53-6.99.36-11.25,1.89-4.26,4.6-6.86,8.11-7.8,3.51-.94,7.09-.6,10.73,1.01,3.58,1.59,6.21,4.02,7.9,7.27,1.69,3.26,1.59,7.02-.3,11.28-1.89,4.26-4.62,6.85-8.17,7.78ZM872.23,666.47c.84-1.89.82-3.65-.07-5.27-.89-1.62-2.57-2.98-5.06-4.09-2.49-1.11-4.63-1.45-6.44-1.02-1.8.42-3.13,1.58-3.97,3.48-.84,1.89-.82,3.65.08,5.26s2.59,2.98,5.07,4.08,4.63,1.45,6.42,1.03,3.11-1.58,3.95-3.47Z"/>
  <path class="cls-1" d="M834.66,692.11l19.33,5.89-15.17-13.37,3.58-6.44,27.4,6.54-3.7,6.65-19.06-5.77,15.1,12.88-3.5,6.28-19.08-5.89,15.01,13.2-3.59,6.46-19.87-20.06,3.55-6.37Z"/>
  <path class="cls-1" d="M822.59,721.05l-4.44-2.9,1.74-2.88c1.74-2.87,3.48-4.47,5.22-4.79,1.12-.22,2.38.13,3.8,1.06l13.97,9.14,2.07-3.17,4.23,2.76-2.07,3.17,6.33,4.14-3.84,5.87-6.33-4.14-2.41,3.69-4.23-2.76,2.41-3.69-12-7.85c-.93-.61-1.59-.87-1.97-.78-.38.09-.97.73-1.76,1.94-.12.18-.24.37-.36.58-.12.21-.24.41-.36.61Z"/>
  <path class="cls-1" d="M821.68,753.97c-3.67.12-7.07-.98-10.21-3.32-3.19-2.38-5.24-5.33-6.15-8.85-.9-3.52.04-7.16,2.82-10.9,2.78-3.74,5.99-5.68,9.63-5.83,3.64-.15,7.05.97,10.25,3.34,3.14,2.34,5.18,5.28,6.12,8.83.94,3.55.01,7.2-2.77,10.93-2.78,3.74-6.01,5.67-9.68,5.79ZM826.56,744.58c1.24-1.66,1.6-3.38,1.09-5.16-.51-1.78-1.86-3.47-4.04-5.1-2.18-1.62-4.2-2.43-6.05-2.41-1.85.02-3.4.86-4.64,2.52-1.24,1.66-1.6,3.38-1.08,5.15.52,1.77,1.87,3.47,4.06,5.1s4.19,2.43,6.04,2.41c1.84-.02,3.38-.86,4.62-2.52Z"/>
  <path class="cls-1" d="M800.78,778.59c-3.67-.16-6.98-1.53-9.92-4.11-3-2.62-4.81-5.72-5.44-9.31-.62-3.58.6-7.13,3.66-10.64,3.07-3.51,6.42-5.2,10.05-5.06,3.64.14,6.95,1.51,9.95,4.13,2.95,2.58,4.75,5.67,5.41,9.28.66,3.61-.55,7.17-3.62,10.69-3.07,3.51-6.43,5.19-10.1,5.02ZM806.38,769.6c1.36-1.56,1.86-3.25,1.49-5.06-.37-1.81-1.58-3.61-3.63-5.4-2.05-1.79-4-2.75-5.85-2.88-1.85-.13-3.46.59-4.82,2.15-1.36,1.56-1.86,3.25-1.47,5.06.38,1.81,1.6,3.61,3.65,5.4,2.05,1.79,3.99,2.75,5.83,2.88,1.84.13,3.44-.59,4.8-2.15Z"/>
  <path class="cls-1" d="M772.28,781.14l-3.78-3.72,2.27-2.48c2.27-2.47,4.29-3.69,6.06-3.67,1.14,0,2.31.6,3.51,1.79l11.89,11.72,2.66-2.69,3.6,3.55-2.66,2.69,5.39,5.31-4.93,5-5.39-5.31-3.09,3.14-3.6-3.54,3.09-3.14-10.21-10.06c-.79-.78-1.38-1.17-1.78-1.16-.39,0-1.1.53-2.11,1.55-.15.15-.31.32-.47.5-.16.18-.32.35-.47.53Z"/>
  <path class="cls-1" d="M758.3,808.71l-10.65-11.84,5.38-4.84,11.03,12.27c.98,1.09,1.95,1.79,2.92,2.13,1.32.5,2.66.15,4-1.06,1.39-1.25,2.03-2.67,1.92-4.25s-.95-3.23-2.5-4.96l-9.82-10.92,5.25-4.73,24.44,27.18-5.25,4.73-8.67-9.64c.29,1.86.14,3.47-.45,4.84-.59,1.37-1.44,2.55-2.55,3.55-1.25,1.12-2.57,1.92-3.98,2.41-1.41.48-2.83.57-4.29.27-1.23-.25-2.27-.72-3.11-1.41-.84-.69-2.07-1.93-3.69-3.73Z"/>
  <path class="cls-1" d="M744.07,832.56c-2.51.22-4.91-.88-7.19-3.32l5.61-4.34c.64.66,1.28,1.07,1.93,1.24,1.21.28,2.55-.15,4.03-1.29,1.22-.94,1.94-1.81,2.17-2.59s.14-1.43-.26-1.94c-.5-.64-1.13-.9-1.91-.76-.78.12-3.13,1.11-7.05,2.96-2.64,1.2-4.92,1.7-6.86,1.5-1.93-.22-3.53-1.14-4.77-2.76-1.64-2.13-2.19-4.47-1.65-7.04.54-2.57,2.47-5.13,5.78-7.69,3.37-2.61,6.42-3.82,9.12-3.64,2.71.18,4.92,1.38,6.62,3.58l-5.69,4.4c-.89-.91-1.69-1.42-2.41-1.53-1.27-.21-2.85.41-4.73,1.86-1.1.85-1.85,1.69-2.25,2.52-.4.83-.34,1.57.17,2.23.49.63,1.12.91,1.9.83.78-.08,3.16-1.02,7.16-2.82,2.9-1.27,5.19-1.84,6.89-1.71,1.69.12,3.18,1.02,4.48,2.7,1.53,1.98,2.07,4.29,1.61,6.91s-2.09,5.03-4.92,7.21c-2.68,2.07-5.27,3.23-7.79,3.47Z"/>
  <path class="cls-1" d="M676.78,852.58l-6.75,3.36-3.3-6.64,6.75-3.36,3.3,6.64Z"/>
  <path class="cls-1" d="M597.38,880.51c-1.75.46-3.12,1.02-4.11,1.69-1.88,1.28-2.55,2.92-2.03,4.93.31,1.17,1.06,1.94,2.25,2.32,1.19.36,2.95.49,5.27.39l3.98-.14c3.91-.13,6.7.11,8.37.71,2.82,1.01,4.69,3.26,5.6,6.74.83,3.18.37,6.12-1.39,8.83-1.76,2.71-4.88,4.65-9.36,5.82-3.74.98-7.19.82-10.35-.47-3.16-1.29-5.3-3.8-6.41-7.54l7.12-1.87c.69,2.1,2.02,3.37,3.98,3.82,1.31.29,2.83.21,4.54-.24,1.91-.5,3.33-1.29,4.27-2.35s1.23-2.29.86-3.67c-.33-1.27-1.14-2.07-2.43-2.4-.83-.23-2.5-.31-5.01-.26l-6.5.13c-2.85.06-5.09-.27-6.74-.99-2.56-1.11-4.25-3.25-5.08-6.41-.85-3.24-.31-6.26,1.6-9.05s5.14-4.78,9.67-5.97c4.62-1.21,8.53-1.11,11.73.31,3.2,1.42,5.28,3.97,6.25,7.66l-7.08,1.85c-.65-1.56-1.41-2.66-2.28-3.29-1.59-1.15-3.84-1.33-6.76-.57Z"/>
  <path class="cls-1" d="M575.11,907.88l-5.26-26.61,7.05-1.4,5.26,26.61-7.05,1.39ZM577.01,917.48l-1.27-6.42,7.05-1.4,1.27,6.42-7.05,1.4Z"/>
  <path class="cls-1" d="M553.97,906c2.38-.33,3.88-1.57,4.48-3.71.31-1.13.35-2.53.12-4.19l-2.02-14.54,7-.97,3.73,26.82-6.78.94-.54-3.92c-.71,1.51-1.43,2.62-2.15,3.34-1.29,1.29-3.05,2.08-5.27,2.39-2.78.39-5.15-.03-7.12-1.23-1.97-1.21-3.19-3.5-3.66-6.87l-2.51-18.09,7.2-1,2.27,16.34c.2,1.41.54,2.47,1.02,3.17.88,1.28,2.29,1.79,4.23,1.52Z"/>
  <path class="cls-1" d="M511.07,905.35l7.25-.46c.2,1,.59,1.89,1.19,2.67.86,1.04,2.13,1.51,3.8,1.4,2.38-.15,3.94-1.44,4.67-3.86.38-1.29.51-2.97.38-5.06-.13-1.99-.46-3.57-1-4.75-.99-2.2-2.65-3.22-4.98-3.07-1.66.11-2.8.63-3.44,1.57-.64.94-.99,2.12-1.04,3.56l-7.23.46c.03-2.16.68-4.25,1.94-6.26,2.02-3.24,5.21-5,9.56-5.27,4.35-.28,7.64.81,9.86,3.26,2.22,2.45,3.46,5.74,3.72,9.86.3,4.65-.61,8.34-2.71,11.07-2.1,2.73-5.15,4.22-9.14,4.47-3.39.22-6.22-.37-8.48-1.75-2.26-1.38-3.71-3.99-4.35-7.83Z"/>
  <path class="cls-1" d="M482.44,895.86c.19-1.61,1.04-3.24,2.54-4.88,2.34-2.62,5.6-3.92,9.78-3.89,3.45.02,6.49,1.15,9.11,3.39s3.92,5.86,3.89,10.88c-.03,4.69-1.24,8.29-3.64,10.78-2.4,2.49-5.49,3.72-9.29,3.7-2.26-.01-4.29-.45-6.09-1.31-1.8-.86-3.29-2.2-4.45-4.04-1.05-1.62-1.73-3.49-2.03-5.61-.17-1.25-.24-3.04-.19-5.38l18.56.12c-.08-2.72-.92-4.63-2.53-5.74-.97-.69-2.15-1.03-3.53-1.04-1.46,0-2.65.4-3.57,1.22-.5.44-.94,1.06-1.33,1.86l-7.24-.05ZM489.41,904.22c.1,1.88.66,3.3,1.68,4.28,1.01.98,2.28,1.47,3.79,1.48,1.64.01,2.92-.5,3.83-1.52.91-1.02,1.49-2.41,1.73-4.17l-11.02-.07Z"/>
  <path class="cls-1" d="M446.6,913.66c.73,1.1,1.87,1.74,3.44,1.92,2.14.24,3.69-.39,4.65-1.9.55-.87.98-2.31,1.29-4.31l6.85.78c-.46,3.04-1.29,5.44-2.5,7.21-2.29,3.36-5.83,4.77-10.62,4.23-3.79-.43-6.69-1.82-8.69-4.18-2-2.36-2.81-5.26-2.42-8.73.3-2.65,1.36-4.92,3.18-6.8,1.19-1.25,3.07-2.58,5.64-3.99l3.05-1.68c1.91-1.05,3.22-1.82,3.93-2.31s1.34-1.08,1.87-1.77l-15.65-1.78.71-6.21,24.55,2.79c-.36,2.56-1.18,4.85-2.46,6.86-1.28,2.28-3.94,4.54-7.98,6.78-3.51,1.96-5.8,3.38-6.87,4.28-1.64,1.4-2.57,3.03-2.78,4.89-.17,1.52.1,2.83.83,3.93Z"/>
  <path class="cls-1" d="M426.27,880.54c4.52.84,7.39,3.02,8.62,6.52,1.23,3.5,1.29,8.18.2,14.04-1.09,5.85-2.85,10.2-5.26,13.04s-5.88,3.84-10.39,2.99c-4.52-.84-7.39-3.03-8.62-6.55-1.22-3.52-1.28-8.2-.18-14.06,1.09-5.85,2.85-10.19,5.26-13.02,2.41-2.82,5.87-3.81,10.39-2.97ZM420.52,888.7c-1.04,2.03-1.94,5.09-2.7,9.17-.8,4.27-1.07,7.5-.81,9.67.26,2.17,1.43,3.46,3.5,3.84,2.07.39,3.63-.38,4.69-2.31s1.98-5.03,2.78-9.3c.76-4.08,1.01-7.26.75-9.54-.26-2.29-1.43-3.62-3.5-4.01-2.07-.39-3.64.44-4.69,2.49Z"/>
  <path class="cls-1" d="M393.99,874.03l7.03,1.85-6.32,24.07,8.21,2.16-1.23,4.67c-2.19-.47-3.75-.73-4.66-.76-1.46-.06-2.74.26-3.85.94-.76.47-1.43,1.19-2,2.15-.34.58-.55,1.02-.63,1.33l-5.7-1.5,9.17-34.9Z"/>
  <path class="cls-1" d="M359.79,893.39c.47,1.23,1.46,2.1,2.95,2.61,2.04.7,3.69.41,4.95-.86.72-.73,1.45-2.05,2.18-3.93l6.52,2.23c-1.1,2.87-2.43,5.04-3.98,6.5-2.95,2.8-6.71,3.42-11.28,1.86-3.61-1.23-6.14-3.21-7.6-5.94-1.45-2.73-1.62-5.74-.49-9.04.86-2.53,2.38-4.52,4.56-5.96,1.43-.97,3.55-1.86,6.36-2.69l3.34-.99c2.09-.62,3.53-1.09,4.33-1.41.8-.32,1.54-.76,2.2-1.33l-14.91-5.09,2.02-5.91,23.39,7.98c-.9,2.43-2.19,4.49-3.87,6.17-1.73,1.95-4.82,3.59-9.25,4.92-3.85,1.16-6.39,2.06-7.63,2.71-1.91,1.02-3.16,2.41-3.77,4.18-.49,1.44-.5,2.78-.03,4.01Z"/>
  <path class="cls-1" d="M302.88,844.18l-6.52-3.79,3.72-6.41,6.52,3.79-3.72,6.41Z"/>
  <path class="cls-1" d="M203.4,806.58l24.38-8.96,9.16-10.3,5.73,5.09-9.16,10.3-5.72,25.54-6.75-6,4.92-17-16.06,7.1-6.49-5.77Z"/>
  <path class="cls-1" d="M205.71,767.7c1.28-.99,3.03-1.54,5.26-1.62,3.51-.18,6.72,1.23,9.64,4.22,2.41,2.47,3.74,5.42,3.99,8.86s-1.42,6.91-5,10.41c-3.36,3.28-6.77,4.94-10.22,4.99-3.46.04-6.51-1.29-9.16-4.01-1.58-1.62-2.69-3.36-3.35-5.25-.66-1.88-.74-3.89-.26-6,.41-1.88,1.27-3.68,2.56-5.39.76-1,1.99-2.3,3.69-3.91l12.96,13.29c1.88-1.97,2.65-3.92,2.31-5.83-.2-1.18-.78-2.26-1.74-3.24-1.02-1.04-2.14-1.6-3.38-1.68-.67-.04-1.42.08-2.26.36l-5.06-5.18ZM204.66,778.53c-1.26,1.39-1.88,2.79-1.86,4.2.02,1.41.55,2.65,1.61,3.73,1.15,1.17,2.4,1.73,3.77,1.66,1.37-.07,2.76-.64,4.18-1.7l-7.7-7.89Z"/>
  <path class="cls-1" d="M180.73,782.62l-4.68-5.33,27.58-24.18,4.68,5.33-27.58,24.18Z"/>
  <path class="cls-1" d="M170.85,771.14l-4.48-5.5,28.42-23.19,4.48,5.5-28.42,23.19Z"/>
  <path class="cls-1" d="M158.21,733.12c.98-3.54,3.05-6.46,6.22-8.75,3.22-2.34,6.65-3.41,10.29-3.22s6.82,2.18,9.55,5.95c2.74,3.77,3.63,7.42,2.69,10.93-.95,3.51-3.03,6.44-6.25,8.78-3.17,2.3-6.59,3.36-10.25,3.19-3.67-.17-6.87-2.14-9.61-5.91-2.74-3.77-3.61-7.43-2.63-10.97ZM165.72,740.58c1.22,1.68,2.75,2.54,4.59,2.58,1.85.04,3.87-.73,6.07-2.33,2.2-1.6,3.57-3.28,4.11-5.06s.2-3.5-1.02-5.18c-1.22-1.68-2.75-2.54-4.6-2.57-1.85-.03-3.87.75-6.08,2.35-2.2,1.6-3.57,3.28-4.11,5.04-.54,1.76-.2,3.48,1.02,5.16Z"/>
  <path class="cls-1" d="M162.35,695.22l-14.78,13.78,19.17-6.43,3.77,6.33-19.39,20.44-3.9-6.54,14.54-13.61-18.71,6.62-3.69-6.17,14.66-13.56-18.94,6.38-3.79-6.35,27.32-7.15,3.74,6.26Z"/>
  <path class="cls-1" d="M143.35,670.28l4.73-2.38,1.62,2.94c1.61,2.94,2.12,5.25,1.53,6.92-.37,1.08-1.31,2-2.82,2.76l-14.91,7.51,1.7,3.38-4.51,2.27-1.7-3.38-6.76,3.4-3.16-6.27,6.76-3.4-1.98-3.93,4.51-2.27,1.98,3.93,12.8-6.45c.99-.5,1.55-.94,1.67-1.31.12-.38-.15-1.21-.8-2.5-.1-.19-.2-.39-.32-.61-.12-.21-.23-.42-.35-.62Z"/>
  <path class="cls-1" d="M115.33,652.98c1.73-3.24,4.4-5.63,8-7.17,3.66-1.57,7.24-1.86,10.74-.88,3.5.99,6.17,3.62,8.01,7.91,1.84,4.28,1.91,8.04.21,11.25-1.7,3.22-4.37,5.61-8.03,7.19-3.6,1.54-7.17,1.83-10.71.86-3.54-.97-6.23-3.6-8.07-7.88-1.84-4.28-1.89-8.04-.16-11.28ZM121.01,661.92c.82,1.91,2.12,3.08,3.91,3.53,1.79.45,3.94.14,6.44-.94s4.21-2.42,5.12-4.03c.92-1.61.96-3.37.15-5.28-.82-1.91-2.12-3.08-3.92-3.52s-3.94-.12-6.44.95c-2.5,1.07-4.2,2.41-5.12,4.01-.91,1.6-.96,3.35-.14,5.26Z"/>
  <path class="cls-1" d="M104.54,622.54c1.98-3.09,4.83-5.26,8.54-6.52,3.77-1.28,7.36-1.29,10.78-.02,3.41,1.26,5.87,4.1,7.36,8.51s1.27,8.16-.67,11.24c-1.94,3.08-4.8,5.25-8.57,6.53-3.71,1.26-7.29,1.26-10.74.01-3.45-1.25-5.93-4.08-7.42-8.49s-1.25-8.17.73-11.26ZM109.49,631.9c.67,1.96,1.87,3.24,3.62,3.83s3.91.45,6.49-.42c2.58-.87,4.38-2.08,5.42-3.61s1.23-3.28.56-5.25c-.67-1.96-1.88-3.24-3.63-3.81-1.75-.58-3.92-.43-6.5.44-2.58.87-4.38,2.07-5.42,3.59-1.03,1.52-1.22,3.27-.55,5.23Z"/>
  <path class="cls-1" d="M116.66,596.6l5.11-1.39,1,3.21c.99,3.2,1.03,5.56.12,7.08-.58.98-1.68,1.69-3.31,2.14l-16.11,4.38.99,3.65-4.88,1.33-.99-3.65-7.3,1.98-1.84-6.77,7.3-1.98-1.15-4.25,4.87-1.33,1.16,4.25,13.83-3.76c1.07-.29,1.7-.61,1.89-.95.19-.34.1-1.21-.28-2.61-.06-.21-.12-.43-.19-.66-.07-.23-.14-.45-.22-.67Z"/>
  <path class="cls-1" d="M99.89,570.64l15.59-3.23,1.47,7.09-16.15,3.35c-1.43.3-2.53.78-3.31,1.45-1.1.89-1.47,2.22-1.1,3.99.38,1.84,1.28,3.1,2.71,3.8,1.42.7,3.27.81,5.55.34l14.38-2.98,1.43,6.92-35.79,7.42-1.43-6.92,12.7-2.63c-1.75-.69-3.07-1.63-3.95-2.83-.88-1.2-1.48-2.53-1.78-3.99-.34-1.64-.37-3.19-.07-4.65s.93-2.74,1.92-3.84c.84-.94,1.77-1.59,2.78-1.97,1.01-.38,2.71-.82,5.08-1.31Z"/>
  <path class="cls-1" d="M86.47,546.33c1.08-2.28,3.24-3.79,6.49-4.53l.92,7.03c-.89.22-1.57.56-2.05,1.04-.85.9-1.16,2.28-.92,4.13.2,1.53.58,2.59,1.14,3.18.56.59,1.16.84,1.81.76.81-.11,1.34-.53,1.62-1.26.29-.74.62-3.27,1-7.58.29-2.88,1.02-5.11,2.17-6.68,1.17-1.56,2.77-2.47,4.79-2.73,2.66-.35,4.97.36,6.91,2.12s3.19,4.72,3.73,8.86c.55,4.23.06,7.47-1.46,9.71-1.52,2.25-3.67,3.55-6.43,3.91l-.93-7.13c1.23-.31,2.08-.75,2.54-1.31.82-.99,1.08-2.67.78-5.02-.18-1.38-.53-2.45-1.05-3.21-.52-.76-1.19-1.09-2.01-.98-.79.1-1.35.51-1.67,1.22-.33.71-.71,3.25-1.17,7.61-.36,3.14-1.03,5.41-2,6.81-.96,1.4-2.49,2.23-4.59,2.5-2.48.32-4.75-.37-6.78-2.09-2.04-1.72-3.29-4.34-3.75-7.88-.44-3.36-.13-6.18.93-8.48Z"/>
  <path class="cls-1" d="M103.03,478.12l.49-7.52,7.4.48-.49,7.52-7.4-.48Z"/>
  <path class="cls-1" d="M118.69,395.42c.48-1.74.68-3.21.6-4.4-.17-2.27-1.25-3.67-3.25-4.23-1.17-.32-2.21-.06-3.13.79-.91.85-1.9,2.31-2.98,4.37l-1.87,3.51c-1.85,3.45-3.45,5.74-4.81,6.88-2.29,1.93-5.17,2.42-8.64,1.46-3.17-.87-5.48-2.75-6.94-5.63-1.46-2.88-1.58-6.55-.34-11.01,1.03-3.73,2.89-6.63,5.59-8.72,2.7-2.09,5.95-2.67,9.74-1.77l-1.96,7.1c-2.16-.46-3.93.05-5.3,1.53-.91.99-1.6,2.34-2.07,4.05-.52,1.9-.56,3.53-.11,4.88.46,1.35,1.37,2.21,2.75,2.59,1.26.35,2.36.05,3.29-.9.61-.6,1.53-2.01,2.73-4.2l3.14-5.69c1.38-2.49,2.79-4.27,4.23-5.34,2.25-1.65,4.94-2.04,8.09-1.18,3.23.89,5.57,2.87,7.03,5.92,1.45,3.06,1.56,6.84.32,11.35-1.27,4.61-3.32,7.94-6.15,10-2.83,2.06-6.08,2.58-9.76,1.57l1.94-7.05c1.68.22,3.01.11,3.99-.32,1.79-.8,3.08-2.65,3.88-5.56Z"/>
  <path class="cls-1" d="M96.92,359.26l6.19,2.12-2.33,6.8-6.19-2.12,2.33-6.8ZM106.17,362.43l25.66,8.79-2.33,6.8-25.66-8.79,2.33-6.8Z"/>
  <path class="cls-1" d="M118.41,345.09c-.91,2.23-.59,4.14.96,5.74.82.84,2.01,1.57,3.56,2.21l13.59,5.55-2.67,6.54-25.07-10.23,2.59-6.34,3.66,1.5c-.95-1.37-1.55-2.55-1.81-3.53-.46-1.77-.27-3.69.58-5.76,1.06-2.6,2.61-4.44,4.64-5.54,2.03-1.1,4.62-1,7.77.28l16.91,6.9-2.75,6.73-15.27-6.24c-1.32-.54-2.41-.78-3.26-.71-1.55.12-2.7,1.08-3.44,2.9Z"/>
  <path class="cls-1" d="M140.53,308.29l-3.25,6.5c-.96-.33-1.93-.44-2.91-.31-1.33.22-2.38,1.08-3.12,2.58-1.07,2.14-.74,4.13.99,5.98.92.98,2.32,1.93,4.19,2.87,1.78.89,3.32,1.4,4.61,1.52,2.4.25,4.12-.67,5.16-2.76.74-1.48.87-2.74.38-3.76s-1.34-1.92-2.55-2.69l3.23-6.48c1.86,1.11,3.33,2.72,4.43,4.83,1.78,3.38,1.7,7.01-.25,10.92-1.95,3.9-4.54,6.2-7.77,6.88-3.23.69-6.7.1-10.39-1.74-4.17-2.08-6.91-4.72-8.21-7.91-1.3-3.19-1.06-6.57.73-10.15,1.52-3.04,3.44-5.19,5.78-6.45,2.33-1.25,5.32-1.2,8.95.17Z"/>
  <path class="cls-1" d="M163.15,288.34c1.29.98,2.27,2.53,2.94,4.66,1.09,3.34.57,6.81-1.56,10.41-1.76,2.97-4.26,5.02-7.52,6.16-3.26,1.14-7.04.43-11.35-2.12-4.04-2.39-6.53-5.25-7.47-8.57-.94-3.32-.45-6.62,1.49-9.89,1.15-1.94,2.55-3.47,4.2-4.6,1.65-1.12,3.56-1.73,5.73-1.81,1.93-.09,3.88.26,5.87,1.07,1.16.48,2.74,1.33,4.74,2.54l-9.46,15.97c2.39,1.3,4.47,1.54,6.23.71,1.08-.5,1.98-1.34,2.68-2.52.74-1.26.99-2.49.74-3.7-.13-.66-.44-1.35-.93-2.09l3.69-6.23ZM152.42,290.14c-1.67-.85-3.19-1.09-4.54-.71-1.36.38-2.42,1.23-3.19,2.52-.84,1.41-1.04,2.77-.62,4.07.42,1.3,1.33,2.5,2.73,3.6l5.61-9.49Z"/>
  <path class="cls-1" d="M165.85,248.4c-1.32.07-2.45.74-3.39,2-1.29,1.73-1.52,3.39-.7,4.97.48.92,1.5,2.01,3.07,3.29l-4.12,5.52c-2.39-1.93-4.04-3.86-4.96-5.79-1.75-3.67-1.19-7.44,1.7-11.31,2.28-3.06,4.95-4.86,7.99-5.4,3.04-.54,5.96.23,8.75,2.31,2.14,1.6,3.56,3.66,4.27,6.17.48,1.66.68,3.96.61,6.88l-.08,3.48c-.05,2.18-.05,3.7.01,4.56.06.86.25,1.7.58,2.5l9.42-12.62,5,3.74-14.78,19.8c-2.03-1.6-3.6-3.46-4.68-5.58-1.32-2.25-1.93-5.69-1.83-10.31.08-4.02,0-6.72-.23-8.09-.38-2.13-1.32-3.75-2.82-4.87-1.22-.91-2.49-1.33-3.81-1.26Z"/>
  <path class="cls-1" d="M204.7,247.54c-3,3.48-6.33,4.86-9.97,4.16-3.64-.7-7.72-3-12.23-6.9-4.51-3.89-7.38-7.6-8.62-11.11-1.24-3.51-.36-7.01,2.65-10.49,3-3.48,6.34-4.86,10-4.15,3.65.72,7.73,3.03,12.24,6.92,4.51,3.89,7.37,7.59,8.6,11.1,1.23,3.5.34,6.99-2.67,10.47ZM200.55,238.45c-1.23-1.92-3.42-4.24-6.56-6.95-3.29-2.84-5.94-4.7-7.95-5.57-2.01-.87-3.7-.51-5.08,1.09-1.38,1.59-1.5,3.33-.36,5.21,1.14,1.88,3.35,4.24,6.64,7.08,3.14,2.71,5.76,4.53,7.87,5.45,2.11.92,3.85.59,5.23-1.01,1.38-1.59,1.45-3.36.21-5.31Z"/>
  <path class="cls-1" d="M226.57,222.91l-5.13,5.15-17.63-17.56-5.99,6.01-3.42-3.41c1.51-1.66,2.51-2.87,3-3.65.78-1.23,1.16-2.5,1.12-3.8-.03-.89-.31-1.83-.85-2.81-.33-.59-.61-.99-.83-1.21l4.16-4.18,25.56,25.47Z"/>
  <path class="cls-1" d="M227.01,183.6c-1.3-.21-2.55.21-3.74,1.24-1.63,1.42-2.21,2.99-1.74,4.71.27,1,1.04,2.28,2.31,3.86l-5.2,4.53c-1.93-2.39-3.14-4.63-3.63-6.71-.94-3.96.42-7.52,4.06-10.69,2.88-2.5,5.86-3.7,8.95-3.59,3.09.11,5.78,1.49,8.07,4.11,1.75,2.02,2.71,4.33,2.87,6.94.12,1.73-.17,4.01-.86,6.85l-.82,3.38c-.51,2.12-.83,3.6-.95,4.46s-.11,1.71.04,2.57l11.88-10.34,4.1,4.71-18.64,16.22c-1.65-2-2.78-4.14-3.4-6.44-.82-2.48-.69-5.97.39-10.47.93-3.91,1.42-6.56,1.49-7.96.08-2.16-.5-3.94-1.73-5.36-1-1.15-2.15-1.83-3.46-2.04Z"/>
  <path class="cls-1" d="M298.1,159.04l6.54-3.75,3.69,6.43-6.54,3.75-3.68-6.43Z"/>
</svg>