<?xml version="1.0" encoding="UTF-8"?>
<svg id="Layer_1" xmlns="http://www.w3.org/2000/svg" version="1.1" viewBox="0 0 232.22 36.46">
  <!-- Generator: Adobe Illustrator 30.5.1, SVG Export Plug-In . SVG Version: 2.1.4 Build 3)  -->
  <defs>
    <style>
      .st0 {
        fill: #eabe44;
      }
    </style>
  </defs>
  <polygon class="st0" points="152.95 36.46 158.23 27.32 163.5 36.46 152.95 36.46"/>
  <polygon class="st0" points="20.45 1.13 12.87 14.41 5.3 1.13 0 1.13 10.37 18.91 10.37 33.21 15.42 33.21 15.42 18.91 25.75 1.13 20.45 1.13"/>
  <path class="st0" d="M30.81,8.69c-2.9,0-5.44,1.07-7.56,3.17-2.36,2.34-3.55,5.49-3.55,9.36s1.17,6.74,3.47,8.95c2.07,2.02,4.63,3.04,7.6,3.04,2.03,0,3.9-.31,5.56-.92,1.34-.48,2.36-1.05,3.03-1.71l.21-.21-2.1-3.59-.35.31c-1.47,1.29-3.34,1.94-5.56,1.94-1.92,0-3.52-.6-4.73-1.77-1.31-1.29-2.01-3.14-2.08-5.51h16.4l.08-.28c.22-.79.34-1.65.34-2.58,0-3.02-.95-5.47-2.81-7.31-1.92-1.9-4.59-2.87-7.95-2.87M24.9,18.01c.21-1.37.83-2.54,1.82-3.48,1.15-1.09,2.59-1.65,4.29-1.65,1.84,0,3.25.55,4.31,1.67.89.94,1.35,2.08,1.43,3.45h-11.85Z"/>
  <path class="st0" d="M49.66,27.86c-.64-.63-.95-1.49-.95-2.62l.02-24.53h-4.84v25.22c0,4.84,2.77,7.29,8.26,7.29h.39v-4.4h-.39c-1.04,0-1.86-.31-2.49-.95"/>
  <path class="st0" d="M60.15,27.86c-.63-.63-.94-1.49-.94-2.62V.71h-4.82l-.02,25.22c0,4.84,2.78,7.29,8.27,7.29h.39v-4.4h-.39c-1.04,0-1.86-.31-2.49-.95"/>
  <path class="st0" d="M75.22,8.69c-3.21,0-5.83,1.14-7.8,3.39-1.96,2.24-2.95,5.2-2.95,8.81s.95,6.73,2.83,8.95c1.89,2.23,4.56,3.36,7.93,3.36s5.94-1.12,7.86-3.33c1.9-2.19,2.87-5.21,2.87-8.98s-.94-6.79-2.81-8.94c-1.88-2.17-4.54-3.26-7.92-3.26M79.36,26.98c-1.01,1.44-2.36,2.14-4.14,2.14-3.84,0-5.7-2.69-5.7-8.22,0-2.55.53-4.58,1.58-6.01,1.04-1.42,2.39-2.11,4.12-2.11,3.82,0,5.68,2.65,5.68,8.12,0,2.57-.52,4.62-1.54,6.08"/>
  <polygon class="st0" points="108.91 23.38 103.01 8.49 101.36 8.49 95.54 23.34 90.71 8.49 85.54 8.49 94.17 33.21 95.77 33.21 102.21 18.22 108.66 33.21 110.26 33.21 118.94 8.49 114.12 8.49 108.91 23.38"/>
  <path class="st0" d="M146.54,8.69c-3.21,0-5.83,1.14-7.8,3.39-1.96,2.24-2.95,5.2-2.95,8.81s.95,6.73,2.83,8.95c1.89,2.23,4.56,3.36,7.92,3.36s5.94-1.12,7.86-3.33c1.91-2.19,2.87-5.21,2.87-8.98s-.94-6.79-2.81-8.94c-1.88-2.17-4.54-3.26-7.92-3.26M150.68,26.98c-1.01,1.44-2.36,2.14-4.14,2.14-3.84,0-5.7-2.69-5.7-8.22,0-2.55.53-4.58,1.58-6.01,1.03-1.42,2.38-2.11,4.12-2.11,3.82,0,5.68,2.65,5.68,8.12,0,2.57-.52,4.62-1.54,6.08"/>
  <path class="st0" d="M135.06,28.26c-1.05.5-2.09.76-3.06.76-1.31,0-2.26-.36-2.83-1.07-.59-.74-.89-2.04-.89-3.86v-10.98h8.09c.38-.69.82-1.34,1.34-1.93,1.09-1.24,2.4-2.12,3.88-2.67h0-13.38s.08-7.8.08-7.8h-4.85l-.06,7.79h-2.65l.07,4.61h2.65v12.6c0,2.14.66,3.95,1.97,5.36,1.32,1.42,2.96,2.14,4.87,2.14,2.03,0,3.92-.22,5.63-.65l.34-.09-.74-4.43-.46.22h0Z"/>
  <path class="st0" d="M181.56,28.26c1.05.5,2.08.76,3.06.76,1.31,0,2.26-.36,2.83-1.07.59-.74.89-2.04.89-3.86v-10.98h-8.09c-.38-.69-.82-1.34-1.34-1.93-1.09-1.24-2.4-2.12-3.88-2.67h0,13.38s-.07-7.8-.07-7.8h4.85l.06,7.79h2.65l-.07,4.61h-2.65v12.6c0,2.14-.66,3.95-1.97,5.36-1.32,1.42-2.95,2.14-4.87,2.14-2.03,0-3.92-.22-5.63-.65l-.34-.09.74-4.43.46.22h0Z"/>
  <path class="st0" d="M170.04,8.69c-3.2,0-5.82,1.14-7.79,3.39-1.95,2.24-2.95,5.2-2.95,8.82s.95,6.73,2.82,8.95c1.89,2.23,4.55,3.36,7.91,3.36s5.93-1.12,7.85-3.33c1.9-2.19,2.87-5.21,2.87-8.98s-.94-6.79-2.8-8.94c-1.88-2.17-4.54-3.26-7.91-3.26M174.17,26.98c-1.01,1.44-2.36,2.14-4.13,2.14-3.83,0-5.69-2.69-5.69-8.23,0-2.55.53-4.58,1.58-6.01,1.04-1.42,2.38-2.11,4.12-2.11,3.82,0,5.67,2.65,5.67,8.12,0,2.57-.52,4.62-1.54,6.08"/>
  <path class="st0" d="M150.01,16.05c0,1.93-1.56,3.48-3.49,3.48s-3.48-1.56-3.48-3.48,1.56-3.48,3.48-3.48,3.49,1.56,3.49,3.48"/>
  <path class="st0" d="M173.5,16.05c0,1.93-1.56,3.48-3.49,3.48s-3.48-1.56-3.48-3.48,1.56-3.48,3.48-3.48,3.49,1.56,3.49,3.48"/>
  <path class="st0" d="M214.03,11.01c-1.44-1.67-3.46-2.53-5.99-2.53-1.33,0-2.65.3-3.89.88-.84.39-1.53.86-2.07,1.38V.06h-4.84v33.14h4.84V15.29c.49-.68,1.19-1.29,2.08-1.81.93-.54,1.86-.81,2.77-.81,1.42,0,2.48.44,3.25,1.34.78.91,1.17,2.18,1.17,3.79v15.4h4.84v-15.4c0-2.85-.73-5.13-2.16-6.79"/>
  <path class="st0" d="M232.2,26.02c-.09-1.05-.15-4.61-5.44-6.59-1.39-.52-4.45-1.53-4.45-3.72s1.86-2.65,2.23-2.74c2.68-.66,5.75.83,6.04.95l1.42-4.21c-2.78-1.06-5.25-1.2-6.35-1.2-.89,0-3.26,0-5.32,1.62-.73.57-2.69,2.48-2.69,5.92,0,4.36,4.18,5.89,4.75,6.11l1.97.74c2.88.95,3.02,2.74,3.02,3.25,0,1.04-.93,3.22-4.28,3.05-.9-.05-1.76-.09-2.55-.28-.55-.13-1.13-.3-1.73-.51l-.8,4.02c4.35,1.28,8.37.66,9.4.32,1.11-.37,2.04-.87,2.8-1.52.75-.65,2.19-2.7,1.98-5.21"/>
  <path class="st0" d="M230.4.49c.56.32.99.77,1.31,1.35.32.58.48,1.22.48,1.93s-.16,1.35-.48,1.92c-.32.57-.76,1.02-1.31,1.34-.56.32-1.19.49-1.9.49s-1.35-.16-1.91-.49-1-.77-1.32-1.34-.48-1.21-.48-1.92.16-1.36.48-1.93c.32-.57.76-1.02,1.32-1.35s1.2-.49,1.91-.49,1.35.16,1.9.49ZM230.68,6.02c.56-.59.84-1.34.84-2.25s-.28-1.66-.84-2.25-1.28-.88-2.18-.88-1.65.29-2.2.88c-.56.59-.83,1.34-.83,2.25s.28,1.66.83,2.25c.56.59,1.29.88,2.2.88s1.63-.29,2.18-.88ZM229.86,3.72c-.18.21-.42.34-.73.4l1.12,1.61-.96.02-1.03-1.59h-.43v1.59h-.81V1.72h1.74c.41,0,.74.11.99.33.24.22.37.52.37.89,0,.31-.09.57-.26.78h0ZM227.84,3.49h.88c.18,0,.32-.04.43-.13.11-.09.17-.22.17-.39s-.06-.3-.17-.38-.26-.12-.43-.12h-.88v1.03h0Z"/>
</svg>