<?xml version="1.0" encoding="UTF-8"?>
<svg id="Layer_1" xmlns="http://www.w3.org/2000/svg" version="1.1" viewBox="0 0 195.84 30.75">
  <!-- Generator: Adobe Illustrator 30.5.1, SVG Export Plug-In . SVG Version: 2.1.4 Build 3)  -->
  <defs>
    <style>
      .st0 {
        fill: none;
      }

      .st1 {
        fill: #fec52d;
      }

      .st2 {
        fill: #fff;
      }
    </style>
  </defs>
  <rect class="st0" y="0" width="195.84" height="30.75"/>
  <path class="st1" d="M128.99,30.75l4.45-7.71,4.44,7.71h-8.89Z"/>
  <path class="st2" d="M17.25.95l-6.39,11.2L4.47.95H0l8.75,14.99v12.07h4.26v-12.07L21.72.95h-4.47Z"/>
  <path class="st2" d="M25.98,7.33c-2.44,0-4.59.9-6.38,2.67-1.99,1.98-3,4.63-3,7.89s.99,5.68,2.93,7.55c1.75,1.7,3.9,2.56,6.41,2.56,1.71,0,3.29-.26,4.69-.78,1.13-.4,1.99-.89,2.56-1.45l.18-.18-1.77-3.03-.3.26c-1.24,1.08-2.82,1.63-4.69,1.63-1.62,0-2.97-.5-3.99-1.49-1.11-1.09-1.7-2.65-1.75-4.65h13.83l.07-.24c.19-.66.28-1.4.28-2.18,0-2.54-.8-4.62-2.37-6.16-1.62-1.6-3.87-2.42-6.7-2.42M21,15.17c.18-1.15.7-2.14,1.53-2.93.97-.92,2.18-1.39,3.62-1.39,1.55,0,2.74.46,3.63,1.41.75.8,1.14,1.75,1.2,2.91,0,0-9.98,0-9.98,0Z"/>
  <path class="st2" d="M41.88,23.49c-.54-.54-.8-1.26-.8-2.21V.59h-4.07v21.27c0,4.08,2.34,6.15,6.96,6.15h.33v-3.71h-.33c-.88,0-1.57-.26-2.1-.8"/>
  <path class="st2" d="M50.72,23.49c-.53-.54-.79-1.26-.79-2.21V.59h-4.06v21.27c0,4.08,2.33,6.15,6.96,6.15h.33v-3.71h-.33c-.88,0-1.57-.26-2.1-.8"/>
  <path class="st2" d="M63.43,7.33c-2.71,0-4.92.96-6.58,2.86-1.65,1.89-2.49,4.39-2.49,7.43s.8,5.68,2.38,7.54c1.59,1.88,3.84,2.84,6.68,2.84s5.01-.95,6.63-2.81c1.61-1.85,2.42-4.4,2.42-7.57s-.79-5.73-2.37-7.54c-1.58-1.83-3.83-2.75-6.68-2.75M66.91,22.75c-.85,1.22-1.99,1.81-3.49,1.81-3.24,0-4.81-2.27-4.81-6.94,0-2.15.45-3.86,1.33-5.07.88-1.2,2.01-1.78,3.48-1.78,3.22,0,4.79,2.24,4.79,6.85,0,2.17-.44,3.9-1.3,5.13Z"/>
  <path class="st2" d="M91.84,19.72l-4.97-12.56h-1.39l-4.91,12.52-4.07-12.52h-4.36l7.28,20.85h1.35l5.43-12.64,5.44,12.64h1.35l7.31-20.85h-4.06s-4.4,12.56-4.4,12.56Z"/>
  <path class="st2" d="M123.58,7.33c-2.7,0-4.92.96-6.58,2.86-1.65,1.89-2.49,4.39-2.49,7.43s.8,5.68,2.38,7.54c1.6,1.88,3.84,2.84,6.68,2.84s5.01-.95,6.63-2.81c1.61-1.85,2.42-4.39,2.42-7.57s-.8-5.73-2.37-7.54c-1.58-1.83-3.83-2.75-6.68-2.75M127.06,22.75c-.85,1.22-1.99,1.81-3.49,1.81-3.24,0-4.81-2.27-4.81-6.94,0-2.15.45-3.86,1.33-5.07.87-1.2,2.01-1.78,3.47-1.78,3.22,0,4.79,2.24,4.79,6.85,0,2.17-.44,3.9-1.3,5.13"/>
  <path class="st2" d="M113.9,23.83c-.89.42-1.76.64-2.58.64-1.11,0-1.91-.3-2.39-.9-.5-.62-.75-1.72-.75-3.26v-9.26h6.82c.32-.58.69-1.13,1.13-1.62.92-1.05,2.02-1.78,3.27-2.26h-11.29l.06-6.57h-4.09l-.05,6.57h-2.24l.06,3.89h2.24v10.63c0,1.81.56,3.33,1.66,4.52,1.11,1.2,2.49,1.81,4.11,1.81,1.71,0,3.31-.18,4.75-.55l.29-.07-.63-3.73-.39.18.02-.02h0Z"/>
  <path class="st2" d="M153.11,23.83c.89.42,1.76.64,2.58.64,1.11,0,1.91-.3,2.39-.9.5-.62.75-1.72.75-3.26v-9.26h-6.83c-.32-.58-.69-1.13-1.13-1.62-.92-1.05-2.02-1.78-3.27-2.26h11.29l-.06-6.57h4.09l.05,6.57h2.24l-.06,3.89h-2.24v10.63c0,1.81-.56,3.33-1.66,4.52-1.11,1.2-2.49,1.81-4.11,1.81-1.71,0-3.31-.18-4.75-.55l-.29-.07.63-3.73.39.18v-.02h0Z"/>
  <path class="st2" d="M143.39,7.33c-2.7,0-4.92.96-6.58,2.86-1.65,1.89-2.49,4.39-2.49,7.43s.8,5.68,2.39,7.54c1.6,1.88,3.84,2.84,6.68,2.84s5.01-.95,6.63-2.81c1.61-1.85,2.42-4.39,2.42-7.57s-.79-5.73-2.37-7.54c-1.58-1.83-3.83-2.75-6.68-2.75ZM146.88,22.75c-.85,1.22-1.99,1.81-3.49,1.81-3.24,0-4.81-2.27-4.81-6.94,0-2.15.45-3.86,1.33-5.07.87-1.2,2.01-1.78,3.48-1.78,3.22,0,4.79,2.24,4.79,6.85,0,2.17-.44,3.9-1.3,5.13h0Z"/>
  <path class="st2" d="M126.51,13.54c0,1.62-1.32,2.94-2.94,2.94s-2.94-1.31-2.94-2.94,1.31-2.94,2.94-2.94,2.94,1.32,2.94,2.94Z"/>
  <path class="st2" d="M146.32,13.54c0,1.62-1.31,2.94-2.94,2.94s-2.94-1.31-2.94-2.94,1.32-2.94,2.94-2.94,2.94,1.32,2.94,2.94Z"/>
  <path class="st2" d="M180.5,9.29c-1.22-1.41-2.92-2.13-5.05-2.13-1.13,0-2.23.25-3.28.74-.71.33-1.29.72-1.74,1.17V.06h-4.08v27.95h4.08v-15.1c.41-.57,1-1.09,1.76-1.52.78-.45,1.57-.68,2.33-.68,1.2,0,2.09.37,2.74,1.13.66.76.98,1.84.98,3.2v12.99h4.08v-12.99c0-2.4-.61-4.33-1.82-5.73"/>
  <path class="st2" d="M195.82,21.95c-.08-.89-.13-3.89-4.59-5.56-1.18-.44-3.76-1.29-3.76-3.14s1.57-2.23,1.88-2.31c2.26-.56,4.85.7,5.09.8l1.2-3.55c-2.35-.9-4.42-1.02-5.35-1.02-.75,0-2.75,0-4.49,1.36-.61.48-2.27,2.09-2.27,4.99,0,3.68,3.53,4.97,4.01,5.15l1.66.63c2.43.8,2.54,2.31,2.54,2.74,0,.87-.78,2.72-3.61,2.57-.76-.04-1.48-.08-2.15-.23-.46-.11-.95-.25-1.46-.43l-.68,3.39c3.67,1.08,7.06.56,7.93.27.94-.31,1.72-.74,2.36-1.28.64-.55,1.85-2.27,1.67-4.4"/>
  <path class="st2" d="M194.3.41c.47.27.84.65,1.11,1.14s.4,1.03.4,1.63-.13,1.14-.4,1.62c-.27.48-.64.86-1.11,1.13s-1,.41-1.6.41-1.14-.14-1.61-.41-.85-.65-1.11-1.13c-.27-.48-.4-1.02-.4-1.62s.13-1.14.4-1.63c.27-.48.64-.86,1.11-1.14.47-.27,1.01-.41,1.61-.41s1.14.14,1.6.41ZM194.54,5.07c.47-.5.7-1.13.7-1.9s-.23-1.4-.7-1.9-1.08-.74-1.84-.74-1.39.25-1.86.74c-.47.5-.7,1.13-.7,1.9s.23,1.4.7,1.9,1.09.74,1.86.74,1.37-.25,1.84-.74ZM193.85,3.13c-.15.17-.35.29-.62.34l.95,1.36-.81.02-.87-1.34h-.36v1.34h-.68V1.45h1.47c.35,0,.63.09.83.28.21.18.31.43.31.75,0,.26-.07.48-.22.66h0ZM192.14,2.93h.74c.15,0,.27-.04.36-.11s.14-.18.14-.33-.05-.26-.14-.32c-.1-.07-.22-.1-.36-.1h-.74v.87h0Z"/>
</svg>
